<svg width="224" height="211" viewBox="0 0 224 211" fill="none" xmlns="http://www.w3.org/2000/svg">
<path fill-rule="evenodd" clip-rule="evenodd" d="M20.0667 117H33.5666C34.75 117 35.85 117.631 36.4333 118.659L43.1666 130.274C43.7666 131.303 43.7666 132.564 43.1666 133.593L36.4333 145.208C35.8333 146.236 34.7333 146.867 33.55 146.867H20.0667C18.8833 146.867 17.7833 146.236 17.1833 145.208L10.45 133.593C9.85 132.564 9.85 131.303 10.45 130.274L17.1833 118.659C17.7833 117.631 18.8833 117 20.0667 117ZM20.085 132.06C20.1767 128.411 23.1412 125.534 26.8083 125.534C30.4754 125.534 33.44 128.411 33.5316 132.06C33.6256 135.802 30.5682 138.921 26.8083 138.921C23.0484 138.921 19.991 135.802 20.085 132.06Z" fill="#fff" fill-opacity="0.2"/>
<path fill-rule="evenodd" clip-rule="evenodd" d="M76.0667 170H89.5666C90.75 170 91.85 170.631 92.4333 171.659L99.1666 183.274C99.7666 184.303 99.7666 185.564 99.1666 186.593L92.4333 198.208C91.8333 199.236 90.7333 199.867 89.55 199.867H76.0667C74.8833 199.867 73.7833 199.236 73.1833 198.208L66.45 186.593C65.85 185.564 65.85 184.303 66.45 183.274L73.1833 171.659C73.7833 170.631 74.8833 170 76.0667 170ZM76.085 185.06C76.1767 181.411 79.1412 178.534 82.8083 178.534C86.4754 178.534 89.44 181.411 89.5316 185.06C89.6256 188.802 86.5682 191.921 82.8083 191.921C79.0484 191.921 75.991 188.802 76.085 185.06Z" fill="#fff" fill-opacity="0.2"/>
<path fill-rule="evenodd" clip-rule="evenodd" d="M132.067 13H145.567C146.75 13 147.85 13.6305 148.433 14.6593L155.167 26.2741C155.767 27.3029 155.767 28.5639 155.167 29.5926L148.433 41.2075C147.833 42.2362 146.733 42.8668 145.55 42.8668H132.067C130.883 42.8668 129.783 42.2362 129.183 41.2075L122.45 29.5926C121.85 28.5639 121.85 27.3029 122.45 26.2741L129.183 14.6593C129.783 13.6305 130.883 13 132.067 13ZM132.085 28.0603C132.177 24.4107 135.141 21.5342 138.808 21.5342C142.475 21.5342 145.44 24.4107 145.532 28.0603C145.626 31.8023 142.568 34.9211 138.808 34.9211C135.048 34.9211 131.991 31.8023 132.085 28.0603Z" fill="#fff" fill-opacity="0.2"/>
<path d="M94.0077 81.4695C94.0076 81.1155 93.9921 80.7769 93.9612 80.4229L96.8236 78.2527C97.4392 77.791 97.6083 76.929 97.2233 76.2518L94.3435 71.2804C93.9585 70.6032 93.1272 70.3261 92.4192 70.634L89.1102 72.0346C88.5406 71.6344 87.9402 71.2804 87.309 70.988L86.8616 67.4326C86.7691 66.663 86.107 66.0781 85.3374 66.0781H79.596C78.811 66.0781 78.1493 66.663 78.0571 67.4326L77.6118 70.988C76.9807 71.2804 76.3805 71.6344 75.8111 72.0346L72.5013 70.634C71.7932 70.3261 70.9621 70.6032 70.5775 71.2804L67.7005 76.2672C67.3159 76.9444 67.4854 77.791 68.1012 78.2681L70.9649 80.4383C70.9342 80.7769 70.9189 81.1155 70.919 81.4695C70.9191 81.8235 70.9346 82.1621 70.9654 82.5161L68.1031 84.6863C67.4875 85.148 67.3184 86.01 67.7034 86.6872L70.5832 91.6586C70.9682 92.3358 71.7995 92.6129 72.5074 92.305L75.8164 90.9044C76.3861 91.3046 76.9865 91.6586 77.6177 91.951L78.065 95.5064C78.1576 96.276 78.8196 96.8609 79.5893 96.8609H85.3307C86.1003 96.8609 86.762 96.276 86.8541 95.5064L87.2995 91.951C87.9305 91.6586 88.5307 91.3046 89.1001 90.9044L92.4099 92.305C93.1181 92.6129 93.9492 92.3358 94.3338 91.6586L97.2108 86.6872C97.5954 86.01 97.4259 85.1634 96.81 84.6863L93.9464 82.5161C93.9925 82.1621 94.0078 81.8235 94.0077 81.4695ZM82.5264 86.8565C79.5557 86.8565 77.1384 84.44 77.1375 81.4695C77.1367 78.499 79.5526 76.0825 82.5234 76.0825C85.4941 76.0825 87.9114 78.499 87.9123 81.4695C87.9131 84.44 85.4972 86.8565 82.5264 86.8565Z" fill="#fff" fill-opacity="0.2"/>
<path d="M38.5153 25.3914C38.5152 25.0374 38.4997 24.6988 38.4688 24.3448L41.3312 22.1746C41.9467 21.7128 42.1158 20.8509 41.7308 20.1737L38.851 15.2023C38.466 14.5251 37.6348 14.248 36.9268 14.5558L33.6178 15.9565C33.0482 15.5563 32.4478 15.2023 31.8166 14.9099L31.3692 11.3544C31.2766 10.5849 30.6146 10 29.845 10H24.1036C23.3186 10 22.6568 10.5849 22.5647 11.3544L22.1193 14.9099C21.4883 15.2023 20.8881 15.5563 20.3187 15.9565L17.0089 14.5558C16.3008 14.248 15.4697 14.5251 15.085 15.2023L12.208 20.1891C11.8234 20.8663 11.993 21.7128 12.6088 22.19L15.4724 24.3602C15.4417 24.6988 15.4264 25.0374 15.4265 25.3914C15.4266 25.7454 15.4421 26.084 15.473 26.438L12.6106 28.6082C11.995 29.0699 11.826 29.9318 12.211 30.6091L15.0908 35.5805C15.4758 36.2577 16.307 36.5347 17.015 36.2269L20.324 34.8263C20.8936 35.2265 21.494 35.5805 22.1252 35.8729L22.5726 39.4283C22.6652 40.1979 23.3272 40.7828 24.0968 40.7828H29.8382C30.6079 40.7828 31.2696 40.1979 31.3617 39.4283L31.8071 35.8729C32.4381 35.5805 33.0383 35.2265 33.6077 34.8263L36.9175 36.2269C37.6256 36.5347 38.4567 36.2577 38.8414 35.5805L41.7184 30.6091C42.103 29.9318 41.9334 29.0853 41.3176 28.6082L38.454 26.438C38.5001 26.084 38.5154 25.7454 38.5153 25.3914ZM27.034 30.7784C24.0632 30.7784 21.6459 28.3619 21.6451 25.3914C21.6443 22.4208 24.0602 20.0044 27.031 20.0044C30.0017 20.0044 32.419 22.4208 32.4198 25.3914C32.4207 28.3619 30.0047 30.7784 27.034 30.7784Z" fill="#fff" fill-opacity="0.2"/>
<path d="M150.515 132.391C150.515 132.037 150.5 131.699 150.469 131.345L153.331 129.175C153.947 128.713 154.116 127.851 153.731 127.174L150.851 122.202C150.466 121.525 149.635 121.248 148.927 121.556L145.618 122.956C145.048 122.556 144.448 122.202 143.817 121.91L143.369 118.354C143.277 117.585 142.615 117 141.845 117H136.104C135.319 117 134.657 117.585 134.565 118.354L134.119 121.91C133.488 122.202 132.888 122.556 132.319 122.956L129.009 121.556C128.301 121.248 127.47 121.525 127.085 122.202L124.208 127.189C123.823 127.866 123.993 128.713 124.609 129.19L127.472 131.36C127.442 131.699 127.426 132.037 127.427 132.391C127.427 132.745 127.442 133.084 127.473 133.438L124.611 135.608C123.995 136.07 123.826 136.932 124.211 137.609L127.091 142.58C127.476 143.258 128.307 143.535 129.015 143.227L132.324 141.826C132.894 142.226 133.494 142.58 134.125 142.873L134.573 146.428C134.665 147.198 135.327 147.783 136.097 147.783H141.838C142.608 147.783 143.27 147.198 143.362 146.428L143.807 142.873C144.438 142.58 145.038 142.226 145.608 141.826L148.917 143.227C149.626 143.535 150.457 143.258 150.841 142.58L153.718 137.609C154.103 136.932 153.933 136.085 153.318 135.608L150.454 133.438C150.5 133.084 150.515 132.745 150.515 132.391ZM139.034 137.778C136.063 137.778 133.646 135.362 133.645 132.391C133.644 129.421 136.06 127.004 139.031 127.004C142.002 127.004 144.419 129.421 144.42 132.391C144.421 135.362 142.005 137.778 139.034 137.778Z" fill="#fff" fill-opacity="0.2"/>
<path fill-rule="evenodd" clip-rule="evenodd" d="M188.067 65H201.567C202.75 65 203.85 65.6305 204.433 66.6593L211.167 78.2741C211.767 79.3029 211.767 80.5639 211.167 81.5926L204.433 93.2075C203.833 94.2362 202.733 94.8668 201.55 94.8668H188.067C186.883 94.8668 185.783 94.2362 185.183 93.2075L178.45 81.5926C177.85 80.5639 177.85 79.3029 178.45 78.2741L185.183 66.6593C185.783 65.6305 186.883 65 188.067 65ZM188.085 80.0603C188.177 76.4107 191.141 73.5342 194.808 73.5342C198.475 73.5342 201.44 76.4107 201.532 80.0603C201.626 83.8023 198.568 86.9211 194.808 86.9211C191.048 86.9211 187.991 83.8023 188.085 80.0603Z" fill="#fff" fill-opacity="0.2"/>
<path d="M206.515 183.391C206.515 183.037 206.5 182.699 206.469 182.345L209.331 180.175C209.947 179.713 210.116 178.851 209.731 178.174L206.851 173.202C206.466 172.525 205.635 172.248 204.927 172.556L201.618 173.956C201.048 173.556 200.448 173.202 199.817 172.91L199.369 169.354C199.277 168.585 198.615 168 197.845 168H192.104C191.319 168 190.657 168.585 190.565 169.354L190.119 172.91C189.488 173.202 188.888 173.556 188.319 173.956L185.009 172.556C184.301 172.248 183.47 172.525 183.085 173.202L180.208 178.189C179.823 178.866 179.993 179.713 180.609 180.19L183.472 182.36C183.442 182.699 183.426 183.037 183.427 183.391C183.427 183.745 183.442 184.084 183.473 184.438L180.611 186.608C179.995 187.07 179.826 187.932 180.211 188.609L183.091 193.58C183.476 194.258 184.307 194.535 185.015 194.227L188.324 192.826C188.894 193.226 189.494 193.58 190.125 193.873L190.573 197.428C190.665 198.198 191.327 198.783 192.097 198.783H197.838C198.608 198.783 199.27 198.198 199.362 197.428L199.807 193.873C200.438 193.58 201.038 193.226 201.608 192.826L204.917 194.227C205.626 194.535 206.457 194.258 206.841 193.58L209.718 188.609C210.103 187.932 209.933 187.085 209.318 186.608L206.454 184.438C206.5 184.084 206.515 183.745 206.515 183.391ZM195.034 188.778C192.063 188.778 189.646 186.362 189.645 183.391C189.644 180.421 192.06 178.004 195.031 178.004C198.002 178.004 200.419 180.421 200.42 183.391C200.421 186.362 198.005 188.778 195.034 188.778Z" fill="#fff" fill-opacity="0.2"/>
</svg>
