<svg width="132" height="113" viewBox="0 0 132 113" fill="none" xmlns="http://www.w3.org/2000/svg">
<path fill-rule="evenodd" clip-rule="evenodd" d="M102.338 28.2759C102.957 27.9503 103.718 28.095 104.174 28.6248L107.656 32.6713C108.112 33.2011 108.141 33.9755 107.727 34.5385L105.757 37.2164C105.389 37.7158 105.37 38.388 105.688 38.9203C106.711 40.6347 107.572 42.4142 108.271 44.2376C108.491 44.8123 109.026 45.2112 109.641 45.2359L112.935 45.3678C113.633 45.3957 114.219 45.9023 114.349 46.5892L115.336 51.8353C115.465 52.5222 115.103 53.2073 114.462 53.4871L111.473 54.7933C110.906 55.041 110.553 55.6114 110.56 56.2301C110.583 58.2337 110.434 60.2365 110.114 62.2144C110.016 62.8224 110.278 63.4364 110.798 63.7665L113.537 65.5053C114.127 65.8799 114.381 66.6123 114.148 67.2714L112.37 72.3047C112.137 72.9637 111.48 73.3746 110.786 73.2954L107.595 72.9315C106.98 72.8614 106.389 73.1773 106.084 73.7159C105.046 75.5538 103.829 77.3131 102.435 78.967C102.031 79.4464 101.944 80.1221 102.236 80.6768L103.778 83.6053C104.103 84.2237 103.959 84.9851 103.429 85.441L99.3825 88.9227C98.8527 89.3785 98.0782 89.4081 97.5152 88.9939L94.6735 86.9032C94.1838 86.543 93.5266 86.5166 92.9982 86.817C91.424 87.7119 89.7981 88.4721 88.1365 89.0988C87.5575 89.3172 87.1547 89.854 87.1301 90.4722L87.0022 93.6853C86.9744 94.3837 86.468 94.9703 85.7811 95.0997L80.5353 96.088C79.8484 96.2174 79.1632 95.8553 78.8832 95.2149L77.5799 92.2343C77.3332 91.6701 76.7667 91.3171 76.151 91.3213C74.234 91.3345 72.3183 91.1894 70.4251 90.8878C69.814 90.7904 69.1981 91.0572 68.8705 91.5821L67.1382 94.3569C66.7681 94.9498 66.0376 95.2085 65.3768 94.9806L60.3303 93.2404C59.6696 93.0125 59.2537 92.3585 59.3278 91.6635L59.6779 88.3747C59.7431 87.7628 59.4264 87.1758 58.8901 86.8741C57.155 85.8977 55.4897 84.7624 53.9165 83.4696C53.4376 83.0761 52.77 82.9953 52.2215 83.284L49.2688 84.8383C48.6503 85.1638 47.8889 85.0191 47.4331 84.4893L43.9514 80.4429C43.4955 79.913 43.466 79.1386 43.8802 78.5756L45.8882 75.8461C46.2528 75.3505 46.2751 74.684 45.9639 74.1531C44.9683 72.4542 44.1313 70.6929 43.4515 68.8895C43.2333 68.3105 42.6966 67.9075 42.0784 67.8828L38.6725 67.7464C37.9741 67.7184 37.3876 67.2118 37.2584 66.5249L36.2714 61.2789C36.1422 60.592 36.5045 59.9069 37.1449 59.627L40.3176 58.2406C40.8806 57.9946 41.2336 57.4302 41.2311 56.8158C41.2231 54.8777 41.3767 52.9413 41.6904 51.0285C41.7903 50.4195 41.528 49.8039 41.007 49.4732L38.0697 47.6088C37.4796 47.2343 37.2264 46.5018 37.4592 45.8428L39.2372 40.8095C39.47 40.1504 40.1271 39.7395 40.8215 39.8187L44.2926 40.2146C44.9042 40.2844 45.4937 39.9718 45.7994 39.4375C46.7297 37.8112 47.8007 36.2475 49.0109 34.7648C49.4016 34.286 49.4811 33.6206 49.1932 33.0737L47.2957 29.4689C46.9701 28.8504 47.1149 28.089 47.6447 27.6331L51.6911 24.1515C52.2209 23.6956 52.9953 23.6661 53.5583 24.0802L56.8976 26.5369C57.3905 26.8995 58.0527 26.9237 58.5824 26.6175C60.1633 25.7039 61.7974 24.927 63.4683 24.2856C64.0429 24.065 64.4417 23.5303 64.4661 22.9153L64.6049 19.4289C64.6327 18.7305 65.1391 18.1439 65.826 18.0145L71.0718 17.0261C71.7586 16.8967 72.4438 17.2588 72.7239 17.8992L74.1144 21.0793C74.3617 21.6449 74.9303 21.9981 75.5476 21.9922C77.4049 21.9744 79.2614 22.1052 81.0976 22.383C81.7051 22.4749 82.3148 22.2079 82.6402 21.6867L84.4689 18.7572C84.8391 18.1643 85.5696 17.9056 86.2304 18.1335L91.2769 19.8737C91.9376 20.1016 92.3534 20.7556 92.2794 21.4506L91.9197 24.829C91.8542 25.4444 92.1749 26.0341 92.7161 26.3343C94.4408 27.2907 96.0977 28.4034 97.6651 29.6708C98.1436 30.0577 98.806 30.1351 99.3506 29.8485L102.338 28.2759ZM91.1223 74.0703C89.112 75.8001 86.8942 77.1324 84.5647 78.0744C83.728 78.4127 82.8187 77.8704 82.6509 76.9836L80.5196 65.7144C80.4001 65.0827 80.7038 64.4544 81.2243 64.077C81.4374 63.9224 81.6459 63.7578 81.8491 63.5829C82.0522 63.4081 82.2462 63.2266 82.4308 63.0389C82.8816 62.5806 83.5481 62.374 84.1549 62.5863L95.0946 66.4152C95.9545 66.7162 96.3525 67.7104 95.877 68.4875C94.625 70.5333 93.0381 72.4219 91.1223 74.0703ZM73.3156 65.5721C73.939 65.7324 74.4522 66.2066 74.5718 66.839L76.6967 78.074C76.8653 78.9651 76.21 79.8044 75.3032 79.7888C70.353 79.7039 65.446 78.0736 61.3647 74.9566C60.6425 74.4051 60.6519 73.3374 61.3407 72.7447L70.0437 65.2563C70.5315 64.8366 71.2283 64.786 71.8158 65.0485C72.3023 65.2658 72.8042 65.4405 73.3156 65.5721ZM81.317 47.5709C80.8292 47.9906 80.1324 48.0412 79.5448 47.7787C79.0583 47.5613 78.5564 47.3867 78.0449 47.2551C77.4215 47.0947 76.9083 46.6206 76.7887 45.9881L74.5626 34.218C74.3947 33.3304 75.0444 32.4931 75.9476 32.5029C81.0798 32.5586 86.174 34.2755 90.3587 37.5883C91.0636 38.1463 91.0457 39.2 90.3642 39.7864L81.317 47.5709ZM60.2783 38.2235C62.2487 36.5282 64.4184 35.2146 66.6971 34.2762C67.535 33.9311 68.4504 34.4732 68.6188 35.3636L70.841 47.1128C70.9605 47.7445 70.6567 48.3728 70.1363 48.7502C69.9231 48.9048 69.7147 49.0694 69.5115 49.2442C69.3083 49.4191 69.1144 49.6006 68.9297 49.7884C68.4789 50.2467 67.8124 50.4533 67.2056 50.2409L56.0367 46.3318C55.1893 46.0352 54.7874 45.0633 55.2375 44.2867C56.5306 42.0559 58.2135 40.0002 60.2783 38.2235ZM97.1865 60.7342C98.0345 61.031 98.9554 60.5207 99.0874 59.632C99.8325 54.6172 98.9704 49.386 96.4382 44.778C96.0006 43.9816 94.9435 43.8316 94.2546 44.4243L85.265 52.1593C84.7772 52.5791 84.6232 53.2605 84.7951 53.8806C84.9374 54.3941 85.0353 54.9165 85.0891 55.4418C85.1546 56.0821 85.5469 56.6604 86.1544 56.873L97.1865 60.7342ZM54.1424 52.082C53.2819 51.7808 52.3503 52.3108 52.2375 53.2155C51.6175 58.1905 52.5722 63.3471 55.1624 67.8725C55.6091 68.6528 56.6536 68.7923 57.3351 68.2059L66.0956 60.668C66.5834 60.2482 66.7374 59.5668 66.5655 58.9466C66.4232 58.4332 66.3253 57.9108 66.2715 57.3855C66.2059 56.7451 65.8137 56.1669 65.2062 55.9543L54.1424 52.082ZM72.239 59.3747C73.8744 61.2752 76.7408 61.4903 78.6414 59.8549C80.5419 58.2196 80.7569 55.3532 79.1216 53.4526C77.4863 51.552 74.6199 51.337 72.7193 52.9723C70.8187 54.6077 70.6037 57.4741 72.239 59.3747Z" fill="white"/>
<path fill-rule="evenodd" clip-rule="evenodd" d="M43.092 76.0023C43.5919 75.5204 43.6957 74.7584 43.3429 74.1604L41.0996 70.3568C40.7468 69.7587 40.0298 69.4809 39.3662 69.6852L34.9096 71.0573C34.4001 71.2141 33.8489 71.0848 33.4387 70.7443C32.6184 70.0634 31.7428 69.4665 30.8257 68.9574C30.3635 68.7008 30.0443 68.2396 30.0018 67.7128L29.6037 62.777C29.5483 62.0912 29.0336 61.531 28.3549 61.418L24.0775 60.7056C23.3812 60.5896 22.6984 60.9747 22.4374 61.6305L20.627 66.179C20.4281 66.6789 19.9755 67.0285 19.4476 67.1322C18.4953 67.3192 17.5519 67.5924 16.628 67.9547C16.1379 68.1469 15.5813 68.1018 15.1481 67.8026L10.8949 64.8657C10.3172 64.4668 9.53998 64.522 9.0244 64.9986L5.87536 67.9095C5.36522 68.381 5.24563 69.1412 5.58632 69.7466L8.04736 74.1199C8.31053 74.5875 8.29906 75.1577 8.04948 75.6328C7.57785 76.5305 7.18964 77.4686 6.88804 78.4344C6.73101 78.9373 6.34639 79.3425 5.84134 79.4922L1.07377 80.9053C0.400177 81.1049 -0.0445989 81.7453 0.00356022 82.4462L0.304374 86.8243C0.351529 87.5106 0.859457 88.0768 1.5366 88.198L6.23606 89.039C6.76694 89.134 7.20115 89.5087 7.40663 90.0074C7.71645 90.7592 8.08337 91.4986 8.50881 92.2199C8.69879 92.542 8.89756 92.8556 9.10464 93.1607C9.40309 93.6003 9.4787 94.1594 9.27524 94.6503L7.62508 98.6314C7.36147 99.2674 7.56462 100.001 8.11777 100.411L11.6491 103.027C12.2128 103.445 12.9907 103.416 13.5219 102.958L16.7168 100.202C17.1285 99.8463 17.6986 99.7469 18.2184 99.9066C19.4832 100.295 20.79 100.535 22.1102 100.618C22.654 100.652 23.1535 100.947 23.4133 101.426L25.3736 105.041C25.7043 105.651 26.4099 105.955 27.08 105.775L31.2259 104.666C31.9049 104.484 32.3667 103.855 32.3367 103.153L32.1535 98.8536C32.1308 98.3229 32.3938 97.8241 32.824 97.5125C33.8778 96.7495 34.8181 95.8786 35.6391 94.9235C36.0005 94.5031 36.5489 94.2819 37.0957 94.3735L41.1858 95.0585C41.8819 95.1751 42.5651 94.7906 42.8267 94.135L44.4321 90.1123C44.6872 89.473 44.4745 88.7421 43.9161 88.3395L40.2988 85.7316C39.8756 85.4266 39.6464 84.9236 39.6595 84.4022C39.6908 83.1564 39.5857 81.8991 39.3382 80.6537C39.2334 80.1262 39.386 79.5751 39.7732 79.2019L43.092 76.0023ZM14.4994 88.1433C17.1822 92.692 22.9822 94.2414 27.454 91.6039C31.9258 88.9665 33.376 83.1409 30.6931 78.5921C28.0102 74.0434 22.2102 72.494 17.7385 75.1315C13.2667 77.7689 11.8165 83.5945 14.4994 88.1433Z" fill="white"/>
</svg>
