<svg width="150" height="114" viewBox="0 0 150 114" fill="none" xmlns="http://www.w3.org/2000/svg">
<path fill-rule="evenodd" clip-rule="evenodd" d="M111.647 3.14272C111.141 2.6673 110.375 2.6013 109.795 2.98318L104.805 6.26973C104.225 6.6516 103.983 7.38154 104.22 8.03421L106.336 13.8671C106.518 14.3682 106.417 14.9257 106.093 15.3491C105.216 16.497 104.467 17.7222 103.852 19.0016C103.623 19.4781 103.178 19.8192 102.653 19.8877L96.1533 20.7373C95.4711 20.8265 94.937 21.3683 94.8577 22.0517L94.1796 27.8929C94.0983 28.594 94.5167 29.257 95.1845 29.4853L101.335 31.5871C101.844 31.7611 102.216 32.1955 102.341 32.7189C102.647 34.0056 103.082 35.2734 103.651 36.5041C103.872 36.982 103.853 37.5405 103.576 37.988L99.9785 43.7918C99.6086 44.3885 99.7022 45.162 100.204 45.6534L104.363 49.7285C104.859 50.2147 105.624 50.2966 106.212 49.9264L111.834 46.3858C112.288 46.0998 112.858 46.0821 113.343 46.3126C114.588 46.9051 115.889 47.3695 117.224 47.7017C117.735 47.8289 118.159 48.1939 118.333 48.6909L120.515 54.9065C120.748 55.5694 121.41 55.9819 122.107 55.8992L128.009 55.1991C128.692 55.1181 129.232 54.5828 129.32 53.9005L130.127 47.6108C130.195 47.0758 130.548 46.6228 131.038 46.3975C132.006 45.9526 132.953 45.4287 133.871 44.8243C134.31 44.5347 134.736 44.2316 135.147 43.9159C135.568 43.5922 136.123 43.4898 136.624 43.6687L142.054 45.6107C142.702 45.8425 143.425 45.6033 143.807 45.0306L147.108 40.08C147.498 39.4964 147.43 38.7208 146.946 38.2129L143.036 34.1099C142.661 33.7163 142.533 33.1516 142.672 32.6259C143.122 30.9213 143.355 29.1652 143.361 27.4028C143.363 26.8579 143.634 26.3444 144.1 26.0613L148.827 23.1867C149.42 22.8263 149.688 22.1065 149.475 21.4461L147.693 15.8986C147.477 15.2294 146.826 14.7993 146.127 14.8639L140.385 15.3941C139.856 15.443 139.344 15.2057 139.016 14.7882C137.94 13.4204 136.715 12.2242 135.377 11.2071C134.936 10.8714 134.689 10.3338 134.753 9.78322L135.402 4.23558C135.484 3.53456 135.067 2.87119 134.399 2.64233L128.842 0.737559C128.191 0.514368 127.471 0.762978 127.097 1.34054L123.862 6.33051C123.578 6.76822 123.087 7.02299 122.566 7.03089C120.904 7.05604 119.235 7.27891 117.594 7.70682C117.074 7.84254 116.516 7.71647 116.124 7.34821L111.647 3.14272ZM128.498 37.7136C133.923 34.1414 135.473 26.9225 131.962 21.5898C128.45 16.2572 121.206 14.8301 115.781 18.4023C110.357 21.9746 108.806 29.1935 112.318 34.5261C115.83 39.8588 123.074 41.2859 128.498 37.7136ZM65.6039 35.9373C66.2326 35.6345 66.9871 35.8052 67.4242 36.3492L73.3002 43.6624C73.6484 44.0957 74.2072 44.2979 74.7559 44.2089C76.8217 43.8741 78.8969 43.7563 80.9507 43.8451C81.5016 43.8689 82.0291 43.6068 82.3253 43.1416L87.3718 35.2163C87.7467 34.6276 88.4779 34.3752 89.1359 34.6073L96.8272 37.3197C97.4853 37.5518 97.8964 38.2071 97.8191 38.9006L96.7954 48.0785C96.7332 48.636 96.9892 49.1792 97.4465 49.5041C99.1965 50.7475 100.826 52.1824 102.301 53.7966C102.675 54.2057 103.236 54.3944 103.777 54.2729L112.675 52.2743C113.356 52.1214 114.052 52.4582 114.355 53.0869L117.895 60.4344C118.197 61.0631 118.027 61.8176 117.483 62.2547L110.451 67.9048C110.014 68.2556 109.812 68.8201 109.906 69.3723C110.269 71.5079 110.4 73.6547 110.309 75.7787C110.286 76.3305 110.549 76.8584 111.016 77.1541L118.536 81.9207C119.125 82.2943 119.379 83.025 119.148 83.6836L116.452 91.3805C116.221 92.0391 115.567 92.4516 114.873 92.3757L106.222 91.429C105.661 91.3676 105.115 91.6281 104.792 92.0908C103.487 93.9598 101.965 95.6947 100.241 97.2533C99.8275 97.6268 99.6363 98.1909 99.7584 98.7343L101.662 107.209C101.815 107.89 101.478 108.587 100.849 108.89L93.5018 112.429C92.8731 112.732 92.1186 112.561 91.6815 112.017L86.2785 105.293C85.9274 104.856 85.3623 104.654 84.8096 104.748C82.4716 105.148 80.1199 105.269 77.7993 105.126C77.2387 105.092 76.6979 105.354 76.3962 105.828L71.7339 113.15C71.3591 113.739 70.6279 113.991 69.9697 113.759L62.2785 111.046C61.6204 110.814 61.2093 110.159 61.2866 109.466L62.2597 100.742C62.3213 100.189 62.0707 99.6507 61.6209 99.3245C59.7705 97.9829 58.0581 96.425 56.5258 94.6656C56.1532 94.2378 55.5792 94.037 55.0257 94.1613L46.4304 96.0918C45.7496 96.2447 45.0532 95.9079 44.7503 95.2792L41.2111 87.9317C40.9082 87.303 41.0789 86.5485 41.6229 86.1115L48.7437 80.39C49.1707 80.0469 49.3737 79.4989 49.294 78.957C48.9894 76.8864 48.9019 74.8086 49.0209 72.7546C49.0533 72.1947 48.7897 71.6555 48.3161 71.3553L40.5698 66.4455C39.9804 66.0719 39.7265 65.3412 39.9572 64.6826L42.6536 56.9857C42.8843 56.3271 43.5387 55.9146 44.2324 55.9905L53.4904 57.0036C54.0394 57.0637 54.5746 56.8154 54.9005 56.3695C56.105 54.7222 57.4816 53.1853 59.0197 51.789C59.4313 51.4154 59.6215 50.8524 59.4996 50.3101L57.4439 41.1567C57.2909 40.4759 57.6277 39.7795 58.2564 39.4766L65.6039 35.9373ZM96.4363 65.4172C101.042 74.9776 97.0245 86.4612 87.4641 91.0664C77.9037 95.6717 66.4202 91.6547 61.8149 82.0943C57.2097 72.5338 61.2266 61.0503 70.7871 56.445C80.3475 51.8398 91.8311 55.8568 96.4363 65.4172ZM82.943 81.1976C86.8578 79.3116 88.5024 74.6091 86.6164 70.6943C84.7304 66.7795 80.0279 65.1349 76.1131 67.0209C72.1983 68.9069 70.5537 73.6094 72.4397 77.5242C74.3257 81.439 79.0282 83.0836 82.943 81.1976ZM31.0429 60.5684C31.7113 60.777 32.1465 61.4204 32.0913 62.1184L31.6096 68.2121C31.5704 68.7069 31.7821 69.185 32.1519 69.5159C32.8627 70.1519 33.5074 70.8512 34.0798 71.602C34.3806 71.9965 34.8405 72.2447 35.3366 72.2444L41.4503 72.2414C42.1506 72.241 42.7579 72.7252 42.9136 73.408L43.9901 78.1303C44.1458 78.813 43.8083 79.5126 43.1771 79.8158L37.7523 82.4215C37.2991 82.6392 36.9903 83.0706 36.8947 83.5643C36.7887 84.1115 36.6513 84.6583 36.4814 85.2028C36.3159 85.733 36.1238 86.2474 35.9069 86.7452C35.706 87.2063 35.7161 87.7369 35.9665 88.1731L38.8827 93.2543C39.2313 93.8617 39.1132 94.6294 38.5983 95.1039L35.0369 98.3865C34.5219 98.861 33.7472 98.9162 33.1702 98.5194L28.2922 95.1643C27.8812 94.8816 27.3582 94.8268 26.8851 94.9848C25.9275 95.3047 24.9348 95.5294 23.9215 95.6513C23.4259 95.7109 22.9762 95.9843 22.7255 96.4159L19.8306 101.4C19.479 102.006 18.7551 102.287 18.0866 102.079L13.4632 100.636C12.7947 100.427 12.3596 99.7836 12.4147 99.0856L12.863 93.4158C12.9028 92.9118 12.6825 92.4258 12.3004 92.0949C11.4464 91.3555 10.6842 90.5261 10.024 89.6263C9.72437 89.218 9.2563 88.9594 8.74989 88.9597L3.05573 88.9625C2.35548 88.9629 1.74818 88.4787 1.59254 87.7959L0.515939 83.0737C0.360299 82.3909 0.697763 81.6913 1.32899 81.3882L6.54591 78.8823C6.99464 78.6668 7.30201 78.2416 7.40101 77.7537C7.50312 77.2506 7.63191 76.7479 7.78816 76.2471C7.99073 75.5981 8.23329 74.9726 8.51222 74.3725C8.73005 73.9038 8.72675 73.357 8.46949 72.9088L5.6233 67.9495C5.27479 67.3422 5.39277 66.5745 5.90772 66.0999L9.46919 62.8174C9.98408 62.3428 10.7589 62.2876 11.3358 62.6845L16.382 66.1553C16.7812 66.4298 17.2869 66.4898 17.7502 66.3481C18.6228 66.0811 19.5224 65.8926 20.4385 65.788C20.9379 65.731 21.392 65.4571 21.6444 65.0224L24.6754 59.8038C25.0271 59.1983 25.751 58.9167 26.4194 59.1253L31.0429 60.5684ZM30.1409 82.984C28.7851 87.3278 24.1647 89.7501 19.8209 88.3943C15.4771 87.0385 13.0548 82.4181 14.4107 78.0743C15.7664 73.7305 20.3868 71.3082 24.7306 72.664C29.0744 74.0198 31.4967 78.6402 30.1409 82.984Z" fill="white"/>
</svg>
